<svg id="visual" viewBox="0 0 960 540" width="960" height="540" xmlns="http://www.w3.org/2000/svg" xmlns:xlink="http://www.w3.org/1999/xlink" version="1.1"><rect x="0" y="0" width="960" height="540" fill="#001220"></rect><defs><linearGradient id="grad1_0" x1="43.8%" y1="100%" x2="100%" y2="0%"><stop offset="14.444444444444446%" stop-color="#001220" stop-opacity="1"></stop><stop offset="85.55555555555554%" stop-color="#001220" stop-opacity="1"></stop></linearGradient></defs><defs><linearGradient id="grad2_0" x1="0%" y1="100%" x2="56.3%" y2="0%"><stop offset="14.444444444444446%" stop-color="#001220" stop-opacity="1"></stop><stop offset="85.55555555555554%" stop-color="#001220" stop-opacity="1"></stop></linearGradient></defs><g transform="translate(960, 540)"><path d="M-459 0C-411.5 -41.3 -364 -82.6 -350.2 -145C-336.3 -207.5 -356.1 -291 -324.6 -324.6C-293 -358.1 -210 -341.6 -147.3 -355.7C-84.7 -369.8 -42.3 -414.4 0 -459L0 0Z" fill="#21c961"></path></g><g transform="translate(0, 0)"><path d="M459 0C454.5 67.2 450 134.3 409.3 169.5C368.6 204.7 291.7 207.9 252.4 252.4C213.2 296.9 211.5 382.8 175.7 424.1C139.8 465.4 69.9 462.2 0 459L0 0Z" fill="#21c961"></path></g></svg>