<svg width="512" height="512" viewBox="0 0 512 512" fill="none" xmlns="http://www.w3.org/2000/svg" xmlns:xlink="http://www.w3.org/1999/xlink" class="h-full w-full" id="iconWithBackground"><rect id="r4" width="463" height="463" x="24.5" y="24.5" rx="256" fill="url(#linearGradient)" stroke="#000000" stroke-width="49" stroke-opacity="0%" paint-order="stroke"></rect><defs><linearGradient id="linearGradient" gradientUnits="userSpaceOnUse" gradientTransform="rotate(0)" style="transform-origin: center center;"><stop stop-color="#ffffff"></stop><stop offset="1" stop-color="#ffffff"></stop></linearGradient><radialGradient id="glare" cx="0" cy="0" r="1" gradientUnits="userSpaceOnUse" gradientTransform="translate(256) rotate(90) scale(512)"><stop stop-color="white"></stop><stop offset="1" stop-color="white" stop-opacity="0"></stop></radialGradient><clipPath id="clip"><use xlink:href="#r4"></use></clipPath></defs><svg xmlns="http://www.w3.org/2000/svg" xmlns:xlink="http://www.w3.org/1999/xlink" aria-hidden="true" role="img" x="106" y="106" class="iconify iconify--clarity" width="300" height="300" viewBox="0 0 36 36" style="color: rgb(15, 118, 110);"><path fill="currentColor" d="M30.61 24.52a17.16 17.16 0 0 0-25.22 0a1.51 1.51 0 0 0-.39 1v6A1.5 1.5 0 0 0 6.5 33h23a1.5 1.5 0 0 0 1.5-1.5v-6a1.51 1.51 0 0 0-.39-.98Z" class="clr-i-solid clr-i-solid-path-1"></path><circle cx="18" cy="10" r="7" fill="currentColor" class="clr-i-solid clr-i-solid-path-2"></circle><path fill="none" d="M0 0h36v36H0z"></path></svg></svg>